<svg width="55" height="50" viewBox="0 0 55 50" fill="none" xmlns="http://www.w3.org/2000/svg">
<path id="Vector" d="M45.7003 32.4847C46.6482 30.1826 47.1628 27.7181 47.1628 25.0097C47.1628 23.0597 46.8649 21.191 46.3503 19.4576C44.5899 19.8639 42.7482 20.0806 40.8253 20.0806C36.8873 20.0848 33.006 19.1422 29.5086 17.3322C26.0112 15.5222 23.0002 12.8979 20.7295 9.68057C18.3004 15.5581 13.718 20.2859 7.91908 22.8972C7.81074 23.5743 7.81074 24.3056 7.81074 25.0097C7.81074 27.5954 8.32003 30.1558 9.30952 32.5446C10.299 34.9335 11.7493 37.104 13.5777 38.9324C17.2702 42.6249 22.2783 44.6993 27.5003 44.6993C30.3441 44.6993 33.0795 44.0764 35.5441 42.966C37.0878 45.9181 37.792 47.3806 37.7378 47.3806C33.2962 48.8701 29.8566 49.6014 27.5003 49.6014C20.9462 49.6014 14.6899 47.0285 10.0857 42.3972C7.28532 39.6054 5.20362 36.1762 4.01908 32.4035H0.416992V20.0806H3.36908C4.26348 15.727 6.31979 11.6967 9.3198 8.41738C12.3198 5.13808 16.1516 2.73209 20.4086 1.4547C24.6656 0.177321 29.1891 0.0761982 33.4989 1.16206C37.8088 2.24793 41.7443 4.48028 44.8878 7.62223C48.3009 11.0219 50.629 15.3575 51.5774 20.0806H54.5837V32.4035H54.4212L44.7795 41.2597L30.4253 39.6347V35.1118H43.5066L45.7003 32.4847ZM20.1066 24.3868C20.9191 24.3868 21.7045 24.7118 22.2732 25.3076C22.8448 25.8839 23.1655 26.6627 23.1655 27.4743C23.1655 28.286 22.8448 29.0647 22.2732 29.641C21.7045 30.2097 20.9191 30.5347 20.1066 30.5347C18.4003 30.5347 17.0191 29.1806 17.0191 27.4743C17.0191 25.7681 18.4003 24.3868 20.1066 24.3868ZM34.867 24.3868C36.5732 24.3868 37.9274 25.7681 37.9274 27.4743C37.9274 29.1806 36.5732 30.5347 34.867 30.5347C33.1607 30.5347 31.7795 29.1806 31.7795 27.4743C31.7795 26.6555 32.1048 25.8701 32.6838 25.2911C33.2628 24.7121 34.0481 24.3868 34.867 24.3868Z" fill="#8B3E00"/>
</svg>
