<svg width="65" height="65" viewBox="0 0 65 65" fill="none" xmlns="http://www.w3.org/2000/svg">
<circle cx="32.5" cy="32.5" r="32" transform="matrix(0 -1 -1 0 65 65)" fill="#F8F4D9" stroke="#FF7701"/>
<path d="M35.862 20.2171L25.6061 30.5939C25.3794 30.8188 25.1995 31.0863 25.0767 31.3811C24.9538 31.6758 24.8906 31.992 24.8906 32.3113C24.8906 32.6306 24.9538 32.9468 25.0767 33.2415C25.1995 33.5363 25.3794 33.8038 25.6061 34.0287L35.862 44.2845C36.0868 44.5112 36.3543 44.6912 36.6491 44.814C36.9439 44.9368 37.26 45 37.5793 45C37.8986 45 38.2148 44.9368 38.5096 44.814C38.8043 44.6912 39.0718 44.5112 39.2967 44.2845C39.7472 43.8313 40.0001 43.2183 40.0001 42.5792C40.0001 41.9402 39.7472 41.3272 39.2967 40.874L30.734 32.3113L39.2967 23.7486C39.7436 23.2981 39.9955 22.69 39.9982 22.0555C40 21.7371 39.939 21.4216 39.8186 21.1268C39.6982 20.8321 39.5209 20.5641 39.2967 20.3381C39.0799 20.1033 38.8188 19.9137 38.5283 19.7805C38.2379 19.6472 37.9239 19.5727 37.6045 19.5615C37.2852 19.5503 36.9667 19.6024 36.6676 19.7149C36.3685 19.8275 36.0947 19.9982 35.862 20.2171Z" fill="#FF9941"/>
</svg>
