<svg width="62" height="60" viewBox="0 0 62 60" fill="none" xmlns="http://www.w3.org/2000/svg">
<path id="Vector" d="M25.2345 3.18735L24.3458 2.63003C22.6065 1.56362 20.4356 0.944092 18.5694 1.52554C16.5636 2.15015 14.964 3.69517 14.1261 6.01587L12.9327 5.40142C10.8761 4.34263 9.79951 4.32612 8.90703 4.7273C8.19482 5.04595 7.45214 5.81275 6.61044 6.93247L17.0714 15.0207C18.7091 15.5539 21.1085 15.5412 23.5079 14.9191C25.92 14.297 28.3194 13.0783 30.0714 11.4406L34.0196 1.67788C30.5411 -1.07065 27.3673 0.521339 25.2345 3.18735ZM31.9757 12.9005C29.8175 15.0841 26.6056 16.5568 24.1046 17.2169C23.2286 17.4455 22.3526 17.6105 21.502 17.6994C21.0323 18.4738 20.6388 19.2609 20.3341 20.048C20.9435 23.1457 22.086 25.6847 23.7999 27.7668L21.9718 29.2902C20.9181 28.0207 19.9786 26.6496 19.2677 25.1261C19.1534 28.0714 19.8136 31.1183 20.8927 34.2921L18.6456 35.0539C16.6651 29.2648 15.9923 23.3361 18.7726 17.7501C17.8331 17.674 16.9444 17.4962 16.1192 17.2043L16.0811 17.1916C15.5352 17.7121 15.0147 18.258 14.5196 18.8293C10.5117 23.4757 8.304 29.6583 9.45927 34.4699C10.0775 37.047 11.1858 39.4845 12.7804 41.5666C15.1163 41.5158 17.3253 41.5666 19.3311 42.3283C20.2833 42.2267 21.2608 42.1632 22.2765 42.1632C25.8946 42.1632 29.17 42.8361 31.6456 44.0041C32.6104 44.4611 33.4864 45.007 34.1847 45.6291C34.1847 44.9562 34.2862 44.2326 34.4893 43.6994C33.3595 42.633 32.6485 41.338 32.6485 39.8654C32.6485 37.8214 34.0069 36.133 35.9747 34.9142C35.9747 34.3302 36.089 33.7716 36.2921 33.2384C35.0099 32.1339 34.1847 30.7628 34.1847 29.1632C34.1847 28.1603 34.5147 27.2462 35.0733 26.421C34.5147 25.6085 34.1847 24.6945 34.1847 23.6916C34.1847 23.1964 34.2608 22.7394 34.4005 22.2951C33.169 21.2033 32.3946 19.8576 32.3946 18.3087C32.3946 16.7726 33.1563 15.4396 34.3751 14.3605C33.6261 13.7765 32.8263 13.2814 31.9757 12.9005ZM46.1183 13.1925C42.8175 13.1925 39.8341 13.8908 37.7901 14.9191C35.7335 15.9474 34.7687 17.2169 34.7687 18.3087C34.7687 19.4132 35.7335 20.6828 37.7901 21.7111C39.8341 22.7394 42.8175 23.4376 46.1183 23.4376C47.5528 23.4376 48.9112 23.298 50.1681 23.0695V20.9113C51.9327 20.6447 53.3927 20.1623 54.3321 19.5402V21.7746C55.919 21.3175 57.4425 19.6291 57.4806 18.3087C57.4806 17.2169 56.5157 15.9474 54.4591 14.9191C52.4024 13.8908 49.4317 13.1925 46.1183 13.1925ZM58.3692 21.7873C57.9503 22.2316 57.4552 22.6505 56.8966 23.0314L56.922 26.713C58.5216 25.7609 59.2706 24.6564 59.2706 23.6916C59.2706 23.0822 58.9786 22.422 58.3692 21.7873ZM36.5587 23.7423C36.5968 24.8341 37.5616 26.0656 39.5802 27.0812C41.6368 28.1222 44.6075 28.8078 47.921 28.8078C49.9903 28.8078 51.9327 28.5285 53.5958 28.0714L53.6847 24.6183C51.5011 25.38 48.9112 25.799 46.1183 25.799C42.5001 25.799 39.212 25.0753 36.7237 23.8312C36.6603 23.8058 36.6095 23.7677 36.5587 23.7423ZM36.8126 28.1603C36.6349 28.5031 36.5587 28.8459 36.5587 29.1632C36.5587 30.2677 37.5235 31.5373 39.5802 32.5656C41.6368 33.5939 44.6075 34.2794 47.921 34.2794C49.5968 34.2794 51.1837 34.1144 52.6183 33.797V30.7501C51.1456 31.0294 49.5714 31.1691 47.921 31.1691C44.2901 31.1691 41.002 30.4582 38.5138 29.2013C37.8917 28.8966 37.3204 28.5412 36.8126 28.1603ZM59.0167 28.1603C58.2423 28.7062 57.5694 29.1125 56.7823 29.4552V32.2863C58.4708 31.3087 59.2706 30.1662 59.2706 29.1632C59.2706 28.8459 59.1944 28.5031 59.0167 28.1603ZM59.9688 32.8322C59.7149 33.0861 59.4356 33.3273 59.131 33.5685V37.6818C60.4386 36.7931 61.0733 35.8156 61.0733 34.9269C61.0733 34.2541 60.7052 33.5304 59.9688 32.8322ZM38.3741 34.6095C38.3614 34.7238 38.3487 34.8253 38.3487 34.9269C38.3487 36.0314 39.3136 37.2882 41.3702 38.3166C43.4269 39.3576 46.4102 40.0431 49.711 40.0431C51.6026 40.0431 53.4054 39.8146 54.9669 39.4337V35.6378C52.8976 36.298 50.4981 36.6535 47.921 36.6535C44.2901 36.6535 41.002 35.9298 38.5138 34.6857C38.463 34.6603 38.4249 34.6349 38.3741 34.6095ZM36.6476 37.3263C35.5431 38.1515 35.0226 39.0529 35.0226 39.8654C35.0226 40.9699 35.9874 42.2267 38.044 43.2677C40.1007 44.296 43.0714 44.9816 46.3849 44.9816C47.5909 44.9816 48.7589 44.8927 49.8507 44.7277V42.4171H49.711C46.0802 42.4171 42.7921 41.6935 40.3038 40.4367C38.7169 39.6496 37.3966 38.5958 36.6476 37.3263ZM57.2774 41.2111C56.2745 41.5666 55.1827 41.8585 54.0147 42.049V43.5851C54.256 43.4835 54.4972 43.382 54.7257 43.2677C55.9698 42.633 56.8077 41.922 57.2774 41.2111ZM58.4454 43.5216C57.963 44.0041 57.4044 44.4357 56.7823 44.8292V48.4601C58.4708 47.4953 59.2706 46.3527 59.2706 45.3498C59.2706 44.7658 59.004 44.131 58.4454 43.5216ZM14.1769 43.8771C12.8819 43.8898 11.4854 44.0548 10.0382 44.3976C7.14238 45.0705 4.65283 46.3019 3.02783 47.6603C1.40283 49.006 0.768061 50.3771 0.958491 51.3546C1.14892 52.3322 2.15185 53.2335 4.10693 53.7541C6.05566 54.2619 8.78134 54.2873 11.6759 53.6144C12.8438 53.3351 13.9356 52.9796 14.9386 52.5607V49.9328C16.7921 49.1076 18.1759 48.1173 18.7979 47.1525V50.2501C20.3341 48.9298 20.9308 47.6095 20.753 46.6447C20.5753 45.6671 19.5597 44.7658 17.6046 44.258C16.627 44.0041 15.4591 43.8644 14.1769 43.8771ZM22.378 44.5373C22.7208 45.0324 22.962 45.591 23.089 46.213C23.2286 46.9748 23.1651 47.7111 22.9366 48.4347C24.1935 48.7648 25.336 49.2091 26.3263 49.7677C26.8849 50.0724 27.4054 50.4406 27.8624 50.8214C29.005 50.5548 29.9698 50.174 30.6554 49.7169V52.3322C32.6993 51.3673 33.6388 50.1867 33.6388 49.2472C33.6388 48.2951 32.6993 47.1144 30.6427 46.1496C28.5987 45.1974 25.6534 44.5499 22.378 44.5373ZM36.5714 45.172C36.5587 45.2228 36.5587 45.2863 36.5587 45.3498C36.5587 46.4542 37.5235 47.7111 39.5802 48.7521C41.6368 49.7804 44.6075 50.466 47.921 50.466C49.5968 50.466 51.1837 50.2882 52.6183 49.9835V46.5685C50.7393 47.0763 48.6192 47.3556 46.3849 47.3556C42.754 47.3556 39.4659 46.632 36.9776 45.3878C36.838 45.3117 36.6983 45.2355 36.5714 45.172ZM36.9269 49.9074C36.6729 50.3263 36.5587 50.7326 36.5587 51.1261C36.5587 52.2306 37.5235 53.4874 39.5802 54.5285C41.6368 55.5568 44.6075 56.2423 47.921 56.2423C49.5968 56.2423 51.1837 56.0646 52.6183 55.7599V52.4083C51.1456 52.6876 49.5714 52.84 47.921 52.84C44.2901 52.84 41.002 52.1164 38.5138 50.8595C37.9425 50.5802 37.4093 50.2628 36.9269 49.9074ZM58.9024 49.9074C58.1661 50.4025 57.5187 50.796 56.7823 51.1134V54.2365C58.4708 53.2716 59.2706 52.1291 59.2706 51.1261C59.2706 50.7326 59.1563 50.3263 58.9024 49.9074ZM21.756 50.5929C21.3116 51.1515 20.7911 51.6847 20.2071 52.1671C18.2267 53.8302 15.4337 55.1759 12.2091 55.9249C11.0589 56.1916 9.9163 56.3566 8.81943 56.4455C9.22568 57.1183 9.94042 57.7785 10.9865 58.3624C12.7169 59.34 15.256 60.0001 18.0743 60.0001C19.3565 60.0001 20.5753 59.8605 21.6925 59.6193V56.9787C23.4444 56.7121 24.9171 56.2296 25.8565 55.6076V57.9435C27.1261 57.0548 27.7354 56.0519 27.7354 55.0998C27.7354 53.9953 26.9102 52.8146 25.171 51.8371C24.2315 51.3166 23.0636 50.8849 21.756 50.5929Z" fill="#8B3E00"/>
</svg>
