<svg width="65" height="65" viewBox="0 0 65 65" fill="none" xmlns="http://www.w3.org/2000/svg">
<g id="Group 2">
<circle id="Ellipse 2" cx="32.5" cy="32.5" r="32" transform="rotate(-90 32.5 32.5)" fill="#F8F4D9" stroke="#FF7701"/>
<path id="Vector" d="M29.138 20.2171L39.3939 30.5939C39.6206 30.8188 39.8005 31.0863 39.9233 31.3811C40.0462 31.6758 40.1094 31.992 40.1094 32.3113C40.1094 32.6306 40.0462 32.9468 39.9233 33.2415C39.8005 33.5363 39.6206 33.8038 39.3939 34.0287L29.138 44.2845C28.9132 44.5112 28.6457 44.6912 28.3509 44.814C28.0561 44.9368 27.74 45 27.4207 45C27.1014 45 26.7852 44.9368 26.4904 44.814C26.1957 44.6912 25.9282 44.5112 25.7033 44.2845C25.2528 43.8313 24.9999 43.2183 24.9999 42.5792C24.9999 41.9402 25.2528 41.3272 25.7033 40.874L34.266 32.3113L25.7033 23.7486C25.2564 23.2981 25.0045 22.69 25.0018 22.0555C25 21.7371 25.061 21.4216 25.1814 21.1268C25.3018 20.8321 25.4791 20.5641 25.7033 20.3381C25.9201 20.1033 26.1812 19.9137 26.4717 19.7805C26.7621 19.6472 27.0761 19.5727 27.3955 19.5615C27.7148 19.5503 28.0333 19.6024 28.3324 19.7149C28.6315 19.8275 28.9053 19.9982 29.138 20.2171Z" fill="#FF9941"/>
</g>
</svg>
