<svg width="57" height="57" viewBox="0 0 57 57" fill="none" xmlns="http://www.w3.org/2000/svg">
<path id="Vector" d="M54.7982 19.3887C58.1836 16.0033 56.6399 12.0491 54.7982 10.1262L46.6732 2.0012C43.2607 -1.38422 39.3336 0.159531 37.4107 2.0012L32.8065 6.63245H25.792C20.6461 6.63245 17.667 9.34078 16.1503 12.4554L4.12529 24.4804V35.3137L2.20237 37.2095C-1.18305 40.622 0.360703 44.5491 2.20237 46.472L10.3274 54.597C11.7899 56.0595 13.3607 56.6012 14.8503 56.6012C16.7732 56.6012 18.5336 55.6533 19.5899 54.597L26.9024 47.2574H36.6253C41.2295 47.2574 43.5586 44.3866 44.3982 41.5699C47.4586 40.7574 49.1378 38.4283 49.8149 36.1533C54.0128 35.0699 55.5836 31.0887 55.5836 28.2991V20.1741H53.9857L54.7982 19.3887ZM50.167 28.2991C50.167 29.5179 49.6524 31.0074 47.4586 31.0074H44.7503V33.7158C44.7503 34.9345 44.2357 36.4241 42.042 36.4241H39.3336V39.1324C39.3336 40.3512 38.819 41.8408 36.6253 41.8408H24.6815L15.7982 50.7241C14.9586 51.5095 14.4711 51.0491 14.1732 50.7512L6.07529 42.6804C5.28987 41.8408 5.75029 41.3533 6.0482 41.0554L9.54195 37.5345V26.7012L14.9586 21.2845V25.5908C14.9586 28.8679 17.1253 33.7158 23.0836 33.7158C29.042 33.7158 31.2086 28.8679 31.2086 25.5908H50.167V28.2991ZM50.9524 15.5429L46.3482 20.1741H25.792V25.5908C25.792 26.8095 25.2774 28.2991 23.0836 28.2991C20.8899 28.2991 20.3753 26.8095 20.3753 25.5908V17.4658C20.3753 16.2199 20.8357 12.0491 25.792 12.0491H35.0274L41.2024 5.87411C42.042 5.0887 42.5295 5.54911 42.8274 5.84703L50.9253 13.9179C51.7107 14.7574 51.2503 15.2449 50.9524 15.5429Z" fill="#8B3E00"/>
</svg>
