<svg width="53" height="52" viewBox="0 0 53 52" fill="none" xmlns="http://www.w3.org/2000/svg">
<path id="Vector" d="M23.7914 9.78842H31.9164L40.8268 0.850925C41.0786 0.597077 41.3781 0.395593 41.7082 0.258094C42.0382 0.120596 42.3922 0.0498047 42.7497 0.0498047C43.1073 0.0498047 43.4613 0.120596 43.7913 0.258094C44.1213 0.395593 44.4209 0.597077 44.6727 0.850925L51.6602 7.86551C52.1646 8.37295 52.4477 9.05938 52.4477 9.77488C52.4477 10.4904 52.1646 11.1768 51.6602 11.6843L45.4581 17.9134H23.7914V23.3301C23.7914 24.0484 23.5061 24.7373 22.9982 25.2452C22.4902 25.7531 21.8014 26.0384 21.0831 26.0384C20.3648 26.0384 19.6759 25.7531 19.168 25.2452C18.6601 24.7373 18.3747 24.0484 18.3747 23.3301V15.2051C18.3747 13.7685 18.9454 12.3908 19.9612 11.3749C20.9771 10.3591 22.3548 9.78842 23.7914 9.78842ZM7.54141 23.3301V34.1634L1.33932 40.3655C0.834892 40.873 0.551758 41.5594 0.551758 42.2749C0.551758 42.9904 0.834892 43.6768 1.33932 44.1843L8.32682 51.1988C8.5786 51.4527 8.87814 51.6542 9.20818 51.7917C9.53821 51.9292 9.89221 52 10.2497 52C10.6073 52 10.9613 51.9292 11.2913 51.7917C11.6213 51.6542 11.9209 51.4527 12.1727 51.1988L23.7914 39.5801H34.6247C35.343 39.5801 36.0319 39.2948 36.5398 38.7868C37.0477 38.2789 37.3331 37.5901 37.3331 36.8718V34.1634H40.0414C40.7597 34.1634 41.4486 33.8781 41.9565 33.3702C42.4644 32.8623 42.7497 32.1734 42.7497 31.4551V28.7468H45.4581C46.1764 28.7468 46.8652 28.4614 47.3732 27.9535C47.8811 27.4456 48.1664 26.7567 48.1664 26.0384V23.3301H29.2081V26.0384C29.2081 27.475 28.6374 28.8528 27.6216 29.8686C26.6057 30.8844 25.228 31.4551 23.7914 31.4551H18.3747C16.9381 31.4551 15.5604 30.8844 14.5446 29.8686C13.5288 28.8528 12.9581 27.475 12.9581 26.0384V17.9134L7.54141 23.3301Z" fill="#8B3E00"/>
</svg>
