<svg width="30" height="30" viewBox="0 0 30 30" fill="none" xmlns="http://www.w3.org/2000/svg">
<g id="Group 2">
<circle id="Ellipse 2" cx="15" cy="15" r="14.5" transform="rotate(-90 15 15)" fill="#F8F4D9" stroke="#8B3E00"/>
<path id="Vector" d="M13.448 9.32957L18.1815 14.1189C18.2861 14.2226 18.3692 14.3461 18.4259 14.4822C18.4825 14.6182 18.5117 14.7641 18.5117 14.9115C18.5117 15.0589 18.4825 15.2048 18.4259 15.3408C18.3692 15.4769 18.2861 15.6003 18.1815 15.7041L13.448 20.4376C13.3442 20.5422 13.2208 20.6253 13.0847 20.682C12.9487 20.7386 12.8028 20.7678 12.6554 20.7678C12.508 20.7678 12.3621 20.7386 12.2261 20.682C12.09 20.6253 11.9665 20.5422 11.8628 20.4376C11.6548 20.2284 11.5381 19.9455 11.5381 19.6505C11.5381 19.3556 11.6548 19.0727 11.8628 18.8635L15.8148 14.9115L11.8628 10.9595C11.6565 10.7516 11.5402 10.4709 11.539 10.178C11.5382 10.0311 11.5663 9.88546 11.6219 9.74944C11.6774 9.61342 11.7593 9.48971 11.8628 9.38539C11.9628 9.27702 12.0833 9.18955 12.2174 9.12803C12.3514 9.06651 12.4964 9.03216 12.6438 9.02697C12.7912 9.02178 12.9381 9.04585 13.0762 9.09779C13.2142 9.14973 13.3406 9.22851 13.448 9.32957Z" fill="#8B3E00"/>
</g>
</svg>
