<svg width="30" height="30" viewBox="0 0 30 30" fill="none" xmlns="http://www.w3.org/2000/svg">
<g id="Group 43">
<circle id="Ellipse 2" cx="15" cy="15" r="14.5" transform="matrix(0 -1 -1 0 30 30)" fill="#F8F4D9" stroke="#8B3E00"/>
<path id="Vector" d="M16.552 9.32957L11.8185 14.1189C11.7139 14.2226 11.6308 14.3461 11.5741 14.4822C11.5175 14.6182 11.4883 14.7641 11.4883 14.9115C11.4883 15.0589 11.5175 15.2048 11.5741 15.3408C11.6308 15.4769 11.7139 15.6003 11.8185 15.7041L16.552 20.4376C16.6558 20.5422 16.7792 20.6253 16.9153 20.682C17.0513 20.7386 17.1972 20.7678 17.3446 20.7678C17.492 20.7678 17.6379 20.7386 17.7739 20.682C17.91 20.6253 18.0335 20.5422 18.1372 20.4376C18.3452 20.2284 18.4619 19.9455 18.4619 19.6505C18.4619 19.3556 18.3452 19.0727 18.1372 18.8635L14.1852 14.9115L18.1372 10.9595C18.3435 10.7516 18.4598 10.4709 18.461 10.178C18.4618 10.0311 18.4337 9.88546 18.3781 9.74944C18.3226 9.61342 18.2407 9.48971 18.1372 9.38539C18.0372 9.27702 17.9167 9.18955 17.7826 9.12803C17.6486 9.06651 17.5036 9.03216 17.3562 9.02697C17.2088 9.02178 17.0619 9.04585 16.9238 9.09779C16.7858 9.14973 16.6594 9.22851 16.552 9.32957Z" fill="#8B3E00"/>
</g>
</svg>
