<svg width="24" height="23" viewBox="0 0 24 23" fill="none" xmlns="http://www.w3.org/2000/svg">
<g id="bi:apple" clip-path="url(#clip0_426_160)">
<g id="Group">
<path id="Vector" d="M16.574 0.0115101C16.5251 -0.0431149 14.7642 0.0330726 13.2318 1.69626C11.6995 3.35801 11.9352 5.26413 11.9697 5.31301C12.0042 5.36189 14.1547 5.43807 15.5275 3.50463C16.9003 1.5712 16.6229 0.0675726 16.574 0.0115101ZM21.3379 16.8777C21.2689 16.7397 17.9957 15.1038 18.3005 11.9586C18.6052 8.81188 20.7083 7.94939 20.7413 7.85595C20.7744 7.76251 19.8831 6.72032 18.9387 6.19276C18.2453 5.82081 17.4778 5.60771 16.6919 5.56888C16.5366 5.56457 15.9976 5.43232 14.8893 5.73563C14.159 5.93545 12.5131 6.58232 12.0603 6.6082C11.606 6.63407 10.2548 5.85782 8.80146 5.65226C7.87139 5.47257 6.88527 5.84057 6.17946 6.12376C5.47508 6.40551 4.13533 7.20764 3.19808 9.33945C2.26083 11.4698 2.75102 14.8451 3.10177 15.8944C3.45252 16.9424 4.00021 18.6602 4.93171 19.9137C5.75971 21.3282 6.85796 22.31 7.31652 22.6435C7.77508 22.977 9.06883 23.1984 9.96583 22.7398C10.6875 22.2971 11.9898 22.0426 12.5045 22.0613C13.0176 22.08 14.0296 22.2827 15.0661 22.8361C15.8869 23.1193 16.6631 23.0014 17.4408 22.6852C18.2185 22.3675 19.3441 21.1629 20.658 18.7206C21.1568 17.5849 21.3839 16.9711 21.3379 16.8777Z" fill="black"/>
<path id="Vector_2" d="M16.574 0.0115101C16.5251 -0.0431149 14.7642 0.0330726 13.2318 1.69626C11.6995 3.35801 11.9352 5.26413 11.9697 5.31301C12.0042 5.36189 14.1547 5.43807 15.5275 3.50463C16.9003 1.5712 16.6229 0.0675726 16.574 0.0115101ZM21.3379 16.8777C21.2689 16.7397 17.9957 15.1038 18.3005 11.9586C18.6052 8.81188 20.7083 7.94939 20.7413 7.85595C20.7744 7.76251 19.8831 6.72032 18.9387 6.19276C18.2453 5.82081 17.4778 5.60771 16.6919 5.56888C16.5366 5.56457 15.9976 5.43232 14.8893 5.73563C14.159 5.93545 12.5131 6.58232 12.0603 6.6082C11.606 6.63407 10.2548 5.85782 8.80146 5.65226C7.87139 5.47257 6.88527 5.84057 6.17946 6.12376C5.47508 6.40551 4.13533 7.20764 3.19808 9.33945C2.26083 11.4698 2.75102 14.8451 3.10177 15.8944C3.45252 16.9424 4.00021 18.6602 4.93171 19.9137C5.75971 21.3282 6.85796 22.31 7.31652 22.6435C7.77508 22.977 9.06883 23.1984 9.96583 22.7398C10.6875 22.2971 11.9898 22.0426 12.5045 22.0613C13.0176 22.08 14.0296 22.2827 15.0661 22.8361C15.8869 23.1193 16.6631 23.0014 17.4408 22.6852C18.2185 22.3675 19.3441 21.1629 20.658 18.7206C21.1568 17.5849 21.3839 16.9711 21.3379 16.8777Z" fill="black"/>
</g>
</g>
<defs>
<clipPath id="clip0_426_160">
<rect width="23" height="23" fill="white" transform="translate(0.5)"/>
</clipPath>
</defs>
</svg>
