<svg width="19" height="19" viewBox="0 0 19 19" fill="none" xmlns="http://www.w3.org/2000/svg">
<g id="Group 10">
<path id="Vector" d="M19.0003 9.71488C19.0003 9.04126 18.9386 8.39354 18.8241 7.77173H9.69434V11.4465H14.9113C14.6866 12.6339 14.0036 13.6401 12.977 14.3137V16.6973H16.1098C17.9428 15.0435 19.0003 12.608 19.0003 9.71488Z" fill="#4285F4"/>
<path id="Vector_2" d="M9.69198 19.0001C12.3093 19.0001 14.5036 18.1494 16.1075 16.6985L12.9746 14.3149C12.1066 14.8849 10.9962 15.2217 9.69198 15.2217C7.1672 15.2217 5.03017 13.5506 4.26789 11.3052H1.0293V13.7665C2.62436 16.8712 5.90261 19.0001 9.69198 19.0001Z" fill="#34A853"/>
<path id="Vector_3" d="M4.26966 11.3057C4.07578 10.7357 3.96562 10.1268 3.96562 9.50068C3.96562 8.87456 4.07578 8.2657 4.26966 7.69571V5.23438H1.03106C0.3525 6.55819 -0.000598039 8.01923 7.6033e-07 9.50068C7.6033e-07 11.0336 0.374532 12.4845 1.03106 13.767L4.26966 11.3057Z" fill="#FBBC05"/>
<path id="Vector_4" d="M9.69198 3.77836C11.1152 3.77836 12.393 4.25767 13.3976 5.19902L16.178 2.47429C14.4992 0.941351 12.3049 0 9.69198 0C5.90261 0 2.62436 2.12884 1.0293 5.23357L4.26789 7.6949C5.03017 5.44947 7.1672 3.77836 9.69198 3.77836Z" fill="#EA4335"/>
</g>
</svg>
